<svg width="14" height="14" viewBox="0 0 14 14" fill="none" xmlns="http://www.w3.org/2000/svg">
<path fill-rule="evenodd" clip-rule="evenodd" d="M1.57973 0H10.8911C11.7482 0 12.443 0.694808 12.443 1.5519V1.62907L6.23541 4.73287L0.027832 1.62908V1.5519C0.027832 0.694808 0.72264 0 1.57973 0ZM6.51492 5.99066L12.443 3.02661V6.81463C11.8947 6.73832 11.3174 6.83221 10.7779 7.1315C10.6307 7.21318 10.4909 7.30745 10.3585 7.41329C10.222 7.29969 10.0775 7.19857 9.92492 7.1111C9.22535 6.71014 8.45649 6.65728 7.76704 6.88242C6.69454 7.23264 5.92671 8.19299 5.67932 9.31139H1.57973C0.72264 9.31139 0.027832 8.61658 0.027832 7.75949V3.02662L5.95591 5.99066C6.13186 6.07864 6.33897 6.07864 6.51492 5.99066ZM13.8438 10.1423C13.8438 8.19847 11.5138 6.89588 10.3438 9.49104C9.17381 6.84578 6.84381 8.14837 6.84381 10.0922C6.84381 12.6974 10.3438 14 10.3438 14C10.3438 14 13.8438 12.6974 13.8438 10.1423Z" fill="white"/>
</svg>
